<?xml version="1.0" encoding="utf-8"?>
<!-- Generator: Adobe Illustrator 19.0.0, SVG Export Plug-In . SVG Version: 6.00 Build 0)  -->
<svg version="1.1" id="Layer_1" xmlns="http://www.w3.org/2000/svg" xmlns:xlink="http://www.w3.org/1999/xlink" x="0px" y="0px"
	 viewBox="-213 41 532 479" style="enable-background:new -213 41 532 479;" xml:space="preserve">
<style type="text/css">
	.st0{fill:#FFFFFF;}
</style>
<g>
	<path class="st0" d="M7.5,41C6.4,56.6,4.8,72.1,4.3,87.7c-0.9,30.7-1.2,61.4-1.7,92c0,1.7,0,3.5,0,4.6c17-0.8,33.6-2.2,50.2-2.3
		c16.5-0.1,32.9,1.1,49.7,1.7c0.6-47-0.6-94.4-4.5-142.5c6.6,1.8,12.9,3,18.8,5.1c11.2,4,22.3,8.5,33.4,12.8c1.9,0.7,2.8,1.8,3,4.1
		c2.8,44.3,3.8,88.6,2.7,132.9c-0.8,29.2-1.8,58.5-3.8,87.6c-1.9,28.3-5,56.5-7.6,84.7c-0.6,6.5-1.4,13-2.3,19.5
		c-0.2,1.3-1.1,3-2.2,3.6c-17.2,8.5-34.8,15.9-53.3,21c-0.3,0.1-0.7,0.1-1.6,0.2c8.2-58,13.6-116,16-174.3c-18.3-4.4-75.3-4-97,0.6
		c1.3,29.1,2.9,58.2,5.9,87.3c3,28.9,6.3,57.8,9.6,87.1c-1.7-0.4-3.6-0.8-5.4-1.3c-16.9-4.7-33-11.4-48.8-19.1
		c-1.1-0.5-2.1-2.2-2.3-3.5c-1.9-16.4-4.1-32.8-5.5-49.2c-2.4-29-4.8-58.1-6.4-87.1c-2.3-41-3.1-82.2-1.9-123.3
		c0.6-22.6,1.9-45.2,2.7-67.7c0.1-2.3,1-3.2,2.9-4.1c15.7-7.2,31.8-12.7,48.7-16.3c0.6-0.1,1.2-0.5,1.8-0.7C6.1,41,6.8,41,7.5,41z"
		/>
	<path class="st0" d="M-213.3,418.6c1.1-6.9,1.8-13.8,3.4-20.6c2-8.1,4.8-16.1,7.5-24c0.4-1.3,2-2.7,3.3-3.2
		c13.8-5.4,27.9-5.4,41.9-1c17.5,5.5,33.7,13.9,49.7,22.6c2.9,1.6,5.8,3.2,9.5,5.3c-3.3,3.8-5.8,7.7-9.3,10.3c-6,4.5-12.6,8.1-19,12
		c-9.6,5.9-19.7,11-28.7,17.8c-16.4,12.5-22.9,29.8-21.5,50.2c0.5,7.9,0.8,15.9,1,23.9c0,1.6-0.4,3.3-0.9,4.9
		c-1.1,3.4-3.1,3.9-5.5,1.3c-0.5-0.5-0.8-1-1.2-1.6c-16.4-22.8-27.2-47.8-29.7-76c-0.1-0.9-0.4-1.7-0.6-2.6
		C-213.3,431.5-213.3,425.1-213.3,418.6z"/>
	<path class="st0" d="M-59.3,380.4c-5.3-2.9-10-5.4-14.6-8c-13.8-7.6-27.5-15.2-41.3-22.7c-1.9-1-2.7-2.3-2.9-4.4
		c-2.7-31.1-5.4-62.2-8.1-93.3c0-0.3-0.1-0.6-0.3-1.5c-8.8,7.4-15.7,15.8-19.6,27c-6.7-4.8-12.4-10.1-17.1-17.7
		c-3,23.6-3,46.1-0.4,68.1c-8-0.3-15.9-0.5-23.8-1c-7.5-0.5-12.3-4.9-15.4-11.5c-3.8-8.3-4.4-17.1-4.2-26
		c0.4-21.7,5.7-42.5,12.7-62.9c8.8-25.7,20.7-49.8,35.6-72.5c0.7-1.1,1.5-2.1,2.6-3.8c3.4,15.1,7,29.4,13.6,43.7
		c1-3.6,1.9-6.5,2.7-9.4c0.8-2.9,1.6-5.8,2.2-8.7c3.4-19.4,6.8-38.8,10.2-58.2c0.3-1.5,0.6-3.2,1.5-4.2c16.2-16.5,35-29.5,55.2-41.9
		C-78.2,175-75,277.5-59.3,380.4z"/>
	<path class="st0" d="M163.4,379.4c12-102.4,16.1-204.6,10.4-307.6c1.4,0.8,2.5,1.4,3.5,2c49.8,29.1,84.3,71.5,108.2,123.4
		c4.6,9.9,7.1,19.8,6.6,30.7c-0.7,15.4-1,30.8-1.6,46.1c-0.2,4.8,1.3,9,4.9,11.8c3.6,2.8,7.7,5.1,11.8,7.2c1.7,0.9,2.8,1.6,2.3,3.6
		c-1.5,6.4-2.2,13.1-4.5,19.2c-2.7,7-8.5,11.4-16.3,10.9c-14.5-1-28.1,2.4-40.8,8.6c-21.2,10.3-41.9,21.5-62.8,32.4
		c-6.4,3.3-12.6,6.9-18.9,10.4C165.4,378.6,164.6,378.9,163.4,379.4z M259.5,262.8c0.2-1.3,0.4-2.5,0.5-3.7c0.3-9.5,0.9-19,0.9-28.5
		c0-7.7,0-15.6-1.2-23.2c-3.3-21.1-14.9-37.3-31.3-50.4c-0.5-0.4-1-0.6-1.1-0.6c-1.6,50.8-3.2,101.5-4.8,151.9
		c9.3-1.3,19.1-2.7,29.4-4.2c-6.9-6.2-10.4-13.7-10.7-22.5c-0.2-6.6,0-13.3,0.3-19.9c0.3-5.8,2.8-7.4,8-4.9
		C252.9,258.5,256,260.7,259.5,262.8z"/>
	<path class="st0" d="M203.9,397.2c21.4-11.6,42.1-23.9,65.9-29.3c11.3-2.6,22.7-1.6,33.7,2.3c2.3,0.8,3.8,2.2,4.7,4.6
		c17.6,45.7,12.9,89.2-12.5,130.7c-2.4,4-5.1,7.8-7.9,11.5c-0.9,1.2-2.8,2.6-3.9,2.3c-1.1-0.3-2.4-2.4-2.5-3.8
		c-0.4-6.2-0.7-12.4-0.3-18.5c0.6-10,1.4-19.9-1.1-29.7c-3.4-13.4-11.3-23.8-22.3-31.7c-7.1-5.1-14.8-9.2-22.3-13.7
		c-6.7-3.9-13.6-7.5-20.1-11.7C210.5,407.3,206.6,403,203.9,397.2z"/>
	<path class="st0" d="M-27.9,435.4c-3.4,2.4-6.3,4.8-9.5,6.5c-4.2,2.3-8.7,4.3-13.2,6.2c-9.1,3.9-13.2,11.2-13.7,20.6
		c-0.4,5.7,0.2,11.5,0.2,17.2c0,2.3,0.1,4.7-0.2,6.9c-0.5,2.9-2.4,3.5-4.3,1.2c-12.9-15.2-23.2-31.7-21.7-52.8
		c0.8-11.5,5.9-21.2,13.6-29.6c0.5-0.6,2.1-1,2.7-0.6C-58.9,418.9-43.9,426.9-27.9,435.4z"/>
	<path class="st0" d="M132.9,435c3-1.5,5-2.4,7-3.4c12.7-6.6,25.5-13.2,38.2-20c2.2-1.2,3.4-0.9,4.9,0.9
		c14.5,16.9,16.4,35.6,7.9,55.7c-3.9,9.2-9.6,17.4-16.1,25c-0.8,1-2.3,1.4-3.5,2.1c-0.6-1.2-1.7-2.4-1.8-3.6c0-4.9,0.5-9.7,0.4-14.6
		c-0.1-4.9-0.4-10-1.4-14.8c-1.3-6.2-5.1-10.7-10.9-13.4c-5-2.4-10.1-4.5-15-7.1C139.3,440.1,136.5,437.6,132.9,435z"/>
</g>
</svg>
